<?xml version="1.0" standalone="yes"?>
<svg xmlns="http://www.w3.org/2000/svg" width="200" height="59">
<path style="fill:#000000; stroke:none;" d="M0 0L0 59L200 59L200 0L0 0z"/>
<path style="fill:#00b8a8; stroke:none;" d="M65 20C66.1237 24.5268 68.1482 28.1629 67.9799 32.9961C67.8865 35.681 65.3296 39.3609 65.902 41.7716C67.3816 48.0032 77.5467 40.6301 79 38C86.186 44.0645 94.476 46.2558 101 38C103.236 40.0732 112.963 47.8467 115.268 41.7708C116.255 39.1695 113.975 33.9701 114.005 31.0008C114.032 28.4284 116.512 22.6563 114.918 20.5787C111.61 16.2667 104.07 22.3863 102 25C93.4083 17.7673 87.8285 19.2586 79 25C75.9149 19.8229 70.6095 18.7809 65 20z"/>
<path style="fill:#00ffff; stroke:none;" d="M110 19L111 20L110 19M85 20L86 21L85 20M77 22L78 23L77 22M81 23L82 24L81 23M79 24L80 25L79 24z"/>
<path style="fill:#00b8a8; stroke:none;" d="M18 35L27 35L27 33L20 33L20 28L27 28L27 25C19.0269 25.0282 18.0059 27.3426 18 35M28 25L28 35L30 35L30 30C32.5473 31.3726 33.1875 32.2183 34 35L36 35L36 28C32.3203 27.9224 31.0137 26.471 28 25z"/>
<path style="fill:#000000; stroke:none;" d="M71 25L71 38L73 38C73 33.519 73.7943 28.6884 71 25M88 25L88 38C89.5909 34.2087 89.5909 28.7913 88 25M93 25L93 38C94.5909 34.2087 94.5909 28.7913 93 25M109 25L109 38C110.591 34.2087 110.591 28.7913 109 25z"/>
<path style="fill:#00b8a8; stroke:none;" d="M134 27L134 38L140 38L140 32L144 32L144 38L147 38C146.917 30.9902 144.15 27.9115 137 30C137.934 28.2773 138.535 26.8938 139 25C137.125 25.547 135.745 26.11 134 27M129 26C129 30.69 127.763 36.2618 133 38C132.49 33.9633 132.011 30.08 132 26L129 26z"/>
<path style="fill:#00b7a8; stroke:none;" d="M148 26L148 28L151 28L151 26L148 26z"/>
<path style="fill:#00b8a8; stroke:none;" d="M118 27C118.001 35.6971 118.984 37.993 128 38L128 35L121 35L121 29L128 29L128 27L118 27z"/>
<path style="fill:#00ffff; stroke:none;" d="M139 27L140 28L139 27z"/>
<path style="fill:#00b8a7; stroke:none;" d="M37 28L37 35C40.3006 34.8932 42.0394 34.7232 44 32C44.9857 33.4785 45 33.2032 45 35L53 35L53 28C49.6373 28 46.7963 27.2842 46 31C45.0143 29.5215 45 29.7968 45 28L37 28z"/>
<path style="fill:#00b7a8; stroke:none;" d="M54 28L54 38C55.7833 37.0198 55.5943 37.0924 56 35L62 35L62 28L54 28z"/>
<path style="fill:#00b8a8; stroke:none;" d="M148 29L148 38C150.364 37.5175 150.518 37.364 151 35C154.264 38.0818 157.251 38.6227 161 36C162.922 37.4539 165.186 38.5776 167.683 37.392C170.272 36.1625 170.605 31.7971 168.398 30.0278C166.726 28.6875 163.985 29.0235 162 29C160.501 33.2664 158.479 34.6592 154 35L154 32L160 32L160 29C156.464 29.0411 154.002 28.9106 152 32C151.014 30.5215 151 30.7968 151 29L148 29z"/>
<path style="fill:#000000; stroke:none;" d="M39 30C40.2484 30.6848 40.5484 30.7488 42 31C40.7516 30.3152 40.4516 30.2512 39 30M56 33C58.7386 32.7893 59.422 32.6975 60 30C57.7026 30.6735 57.2259 30.9653 56 33M76 30L76 33C77.0154 31.8607 77.3087 31.3884 78 30L76 30M83 30L83 33C83.6961 31.4463 83.6961 31.5537 83 30M97 30L97 34C97.9114 32.6235 98.4038 31.5601 99 30L97 30z"/>
<path style="fill:#00ffff; stroke:none;" d="M146 30L147 31L146 30z"/>
<path style="fill:#000000; stroke:none;" d="M104.333 31.6667C104.278 31.7222 104.222 32.7778 104.667 32.3333C104.722 32.2778 104.778 31.2222 104.333 31.6667z"/>
<path style="fill:#00ffff; stroke:none;" d="M20 32L21 33L20 32z"/>
<path style="fill:#000000; stroke:none;" d="M48 32C49.2484 32.6848 49.5484 32.7488 51 33C49.7516 32.3152 49.4516 32.2512 48 32z"/>
<path style="fill:#00ffff; stroke:none;" d="M79 38L80 39L79 38z"/>
</svg>
